<svg id="Anonymous_Logo" data-name="Anonymous Logo" xmlns="http://www.w3.org/2000/svg" width="1000" height="1000" viewBox="0 0 1000 1000">
  <defs>
    <style>
      .cls-1 {
        fill: #fff;
      }

      .cls-1, .cls-2 {
        fill-rule: evenodd;
      }
    </style>
  </defs>
  <path id="c_shadow" data-name="c shadow" class="cls-1" d="M805.212,701.179Q727.4,913.357,529.617,913.351q-85.927,0-142.255-36.321a280.679,280.679,0,0,1-90.379-93.5q-34.044-57.178-48.229-128.741a720.116,720.116,0,0,1,0-284.454q14.172-71.2,48.229-129.461a274.318,274.318,0,0,1,90.379-94.219Q443.69,110.7,529.617,110.694a301.609,301.609,0,0,1,104.969,18.34q49.851,18.341,86.326,50.706a243.736,243.736,0,0,1,57.956,76.6A212.231,212.231,0,0,1,800.349,350.2h94.836V42.368H800.349V151.69Q767.1,88.41,697.406,57.471,627.683,26.556,529.617,26.545q-111.061,0-188.053,40.636Q264.548,107.823,215.52,175.424,166.468,243.038,145,330.777a781.482,781.482,0,0,0,0,363.929q21.468,87.756,70.52,154.634,49.033,66.888,126.044,107.524T529.617,997.5q142.655,0,236.687-70.844T901.67,734.983Z"/>
  <path id="c" class="cls-2" d="M780.681,676.618Q702.865,888.8,505.086,888.79q-85.928,0-142.256-36.321a280.664,280.664,0,0,1-90.378-93.5q-34.046-57.178-48.23-128.742a720.116,720.116,0,0,1,0-284.454q14.173-71.2,48.23-129.461A274.3,274.3,0,0,1,362.83,122.1Q419.16,86.139,505.086,86.134a301.584,301.584,0,0,1,104.969,18.341q49.851,18.34,86.326,50.705a243.741,243.741,0,0,1,57.956,76.6,212.224,212.224,0,0,1,21.48,93.859h94.837V17.807H775.817V127.129q-33.246-63.28-102.943-94.218Q603.153,2,505.086,1.984q-111.062,0-188.053,40.636Q240.015,83.262,190.989,150.864q-49.053,67.612-70.52,155.353a781.478,781.478,0,0,0,0,363.928q21.468,87.757,70.52,154.634Q240.022,891.667,317.033,932.3T505.086,972.94q142.654,0,236.687-70.844T877.139,710.422Z"/>
</svg>
