<svg id="Anonymous_Favicon" data-name="Anonymous Favicon" xmlns="http://www.w3.org/2000/svg" width="1000" height="1000" viewBox="0 0 1000 1000">
  <defs>
    <style>
      .cls-1 {
        fill: #f2f2f2;
      }

      .cls-2 {
        fill: #d9725b;
      }

      .cls-2, .cls-3 {
        fill-rule: evenodd;
      }

      .cls-3 {
        fill: #6872a6;
      }
    </style>
  </defs>
  <rect id="bg-niceOrange" class="cls-1" width="1000" height="1000"/>
  <path id="c_shadow" data-name="c shadow" class="cls-2" d="M587.783,805.535q-85.7,233.766-303.51,233.765-94.631,0-156.665-40.022A309.174,309.174,0,0,1,28.075,896.266q-37.492-63-53.114-141.841a793.712,793.712,0,0,1,0-313.4q15.608-78.448,53.114-142.633a302.163,302.163,0,0,1,99.533-103.8q62.034-39.615,156.665-39.621a332.013,332.013,0,0,1,115.6,20.207q54.9,20.206,95.07,55.864a268.535,268.535,0,0,1,63.827,84.392A233.906,233.906,0,0,1,582.426,418.84H686.869V79.69H582.426V200.135q-36.614-69.718-113.369-103.8Q392.272,62.269,284.273,62.257q-122.31,0-207.1,44.772Q-7.646,151.8-61.639,226.285q-54.021,74.492-77.662,171.16-23.643,96.685-23.656,200.479,0,103.818,23.656,200.479,23.641,96.687,77.662,170.368,54,73.694,138.811,118.469,84.8,44.745,207.1,44.77,157.1,0,260.661-78.06,103.544-78.03,149.077-211.172Z"/>
  <path id="c" class="cls-3" d="M551.747,743.293q-85.7,233.766-303.509,233.76-94.63,0-156.665-40.016A309.186,309.186,0,0,1-7.96,834.024q-37.492-63-53.114-141.841a793.722,793.722,0,0,1,0-313.4Q-45.466,300.338-7.96,236.152a302.17,302.17,0,0,1,99.533-103.8q62.034-39.615,156.665-39.621a332.008,332.008,0,0,1,115.6,20.207q54.9,20.206,95.07,55.864a268.532,268.532,0,0,1,63.826,84.392A233.9,233.9,0,0,1,546.391,356.6H650.834V17.448H546.391V137.894q-36.613-69.72-113.37-103.806Q356.237,0.027,248.238.015q-122.311,0-207.1,44.771Q-43.681,89.563-97.674,164.043-151.7,238.536-175.337,335.2q-23.642,96.686-23.656,200.479,0,103.818,23.656,200.479,23.643,96.687,77.663,170.368,54,73.694,138.811,118.461t207.1,44.77q157.1,0,260.661-78.047T657.976,780.536Z"/>
</svg>
